<svg width="45" height="44" viewBox="0 0 45 44" fill="none" xmlns="http://www.w3.org/2000/svg">
<ellipse cx="22.5" cy="22" rx="22.5" ry="22" fill="#DB8DF7"/>
<path opacity="0.5" d="M15.5 11.375C15.5 10.7925 15.5 10.5013 15.595 10.2713C15.7221 9.96558 15.9653 9.72282 16.2713 9.59625C16.5013 9.5 16.7925 9.5 17.375 9.5H28.625C29.2075 9.5 29.4987 9.5 29.7287 9.595C30.0344 9.72214 30.2772 9.96534 30.4038 10.2713C30.5 10.5013 30.5 10.7925 30.5 11.375C30.5 11.9575 30.5 12.2487 30.405 12.4787C30.2779 12.7844 30.0347 13.0272 29.7287 13.1537C29.4987 13.25 29.2075 13.25 28.625 13.25H17.375C16.7925 13.25 16.5013 13.25 16.2713 13.155C15.9656 13.0279 15.7228 12.7847 15.5963 12.4787C15.5 12.2487 15.5 11.9575 15.5 11.375ZM13 20.6538V28.94C12.9999 29.1271 13.0104 29.3141 13.0313 29.5H32.97C32.99 29.3194 33 29.1379 33 28.9563V20.635C32.9999 20.2529 32.9558 19.8721 32.8688 19.5H13.135C13.0463 19.875 13 20.2612 13 20.6525" fill="#007E8C"/>
<path d="M14.8762 16.7487L19.2512 13.25H26.7725L28.2 14.3637L31.1462 16.7487C32.0109 17.4486 32.6174 18.4167 32.87 19.5H13.135C13.3922 18.4143 14.0051 17.4459 14.8762 16.7487ZM13.0312 29.5C13.1407 30.4717 13.5327 31.39 14.1587 32.1413C14.6162 32.6888 14.845 32.9638 15.0962 33.1938C15.8449 33.8768 16.7835 34.3162 17.7875 34.4537C18.125 34.5 18.4825 34.5 19.1962 34.5H27.5525C28.2904 34.5001 29.0192 34.3368 29.6866 34.0219C30.354 33.7071 30.9434 33.2484 31.4125 32.6787L31.86 32.135C32.4791 31.3836 32.8653 30.4678 32.9712 29.5H13.0312Z" fill="#FFF72D"/>
<path fill-rule="evenodd" clip-rule="evenodd" d="M23 21.0625C23.2486 21.0625 23.4871 21.1613 23.6629 21.3371C23.8387 21.5129 23.9375 21.7514 23.9375 22V23.5625H25.5C25.7486 23.5625 25.9871 23.6613 26.1629 23.8371C26.3387 24.0129 26.4375 24.2514 26.4375 24.5C26.4375 24.7486 26.3387 24.9871 26.1629 25.1629C25.9871 25.3387 25.7486 25.4375 25.5 25.4375H23.9375V27C23.9375 27.2486 23.8387 27.4871 23.6629 27.6629C23.4871 27.8387 23.2486 27.9375 23 27.9375C22.7514 27.9375 22.5129 27.8387 22.3371 27.6629C22.1613 27.4871 22.0625 27.2486 22.0625 27V25.4375H20.5C20.2514 25.4375 20.0129 25.3387 19.8371 25.1629C19.6613 24.9871 19.5625 24.7486 19.5625 24.5C19.5625 24.2514 19.6613 24.0129 19.8371 23.8371C20.0129 23.6613 20.2514 23.5625 20.5 23.5625H22.0625V22C22.0625 21.7514 22.1613 21.5129 22.3371 21.3371C22.5129 21.1613 22.7514 21.0625 23 21.0625Z" fill="white"/>
</svg>
