<svg width="45" height="44" viewBox="0 0 45 44" fill="none" xmlns="http://www.w3.org/2000/svg">
<ellipse cx="22.5" cy="22" rx="22.5" ry="22" fill="#FFBA40"/>
<path d="M29.2237 13.8951L35.3906 8.34137C35.6137 8.15105 35.9156 8.45387 35.7253 8.67605L30.1725 14.8439L29.2237 13.8951ZM16.7672 29.9751L14.0475 27.2545L12.0553 29.2457L14.7759 31.9664L16.7672 29.9751Z" fill="#9B9B9B"/>
<path d="M26.6813 12.2254C26.5055 12.0497 26.267 11.9509 26.0184 11.9509C25.7699 11.9509 25.5314 12.0497 25.3556 12.2254L24.0947 13.4864L23.97 14.3329L23.1197 14.4614L22.2028 15.3782L22.065 16.2379L21.2025 16.3785L20.3466 17.2345L20.22 18.0829L19.3678 18.2142L14.3503 23.2307C14.1746 23.4065 14.0758 23.6449 14.0758 23.8935C14.0758 24.1421 14.1746 24.3805 14.3503 24.5564L19.4428 29.6498C19.6186 29.8255 19.857 29.9243 20.1056 29.9243C20.3542 29.9243 20.5926 29.8255 20.7684 29.6498L31.7747 18.6435C31.9505 18.4677 32.0492 18.2293 32.0492 17.9807C32.0492 17.7321 31.9505 17.4937 31.7747 17.3179L30.6328 16.176L31.4625 15.3464C31.5497 15.2593 31.6188 15.1559 31.666 15.0421C31.7132 14.9283 31.7375 14.8063 31.7375 14.6831C31.7375 14.5599 31.7132 14.4379 31.666 14.3241C31.6188 14.2103 31.5497 14.1069 31.4625 14.0198L30.1369 12.6942C29.9611 12.5184 29.7227 12.4197 29.4741 12.4197C29.2255 12.4197 28.9871 12.5184 28.8113 12.6942L27.9806 13.5248L26.6813 12.2254Z" fill="#AEDDFF"/>
<path d="M24.1003 13.4807L23.1066 14.4754L24.2222 15.592C24.3547 15.7201 24.5323 15.7911 24.7167 15.7895C24.901 15.788 25.0774 15.7142 25.2078 15.5839C25.3383 15.4536 25.4123 15.2772 25.414 15.0929C25.4157 14.9085 25.3449 14.7309 25.2169 14.5982L24.1003 13.4807ZM22.1972 15.3848L23.2847 16.4723C23.4128 16.6048 23.4838 16.7824 23.4823 16.9668C23.4808 17.1511 23.4069 17.3275 23.2766 17.4579C23.1463 17.5884 22.97 17.6624 22.7856 17.6641C22.6012 17.6658 22.4236 17.595 22.2909 17.467L21.2034 16.3795L22.1972 15.3848ZM20.3503 17.2307L21.4669 18.3473C21.595 18.4798 21.666 18.6574 21.6645 18.8418C21.6629 19.0261 21.5891 19.2025 21.4588 19.3329C21.3285 19.4634 21.1522 19.5374 20.9678 19.5391C20.7834 19.5408 20.6058 19.47 20.4731 19.342L19.3556 18.2254L20.3503 17.2307Z" fill="#0074BA"/>
<path d="M14.0559 23.315C13.8801 23.1393 13.6417 23.0405 13.3931 23.0405C13.1445 23.0405 12.9061 23.1393 12.7303 23.315L12.0675 23.9778C11.8917 24.1536 11.793 24.392 11.793 24.6406C11.793 24.8892 11.8917 25.1276 12.0675 25.3035L18.6966 31.9325C18.8724 32.1083 19.1108 32.207 19.3594 32.207C19.608 32.207 19.8464 32.1083 20.0222 31.9325L20.685 31.2697C20.8608 31.0939 20.9595 30.8555 20.9595 30.6069C20.9595 30.3583 20.8608 30.1199 20.685 29.9441L14.0559 23.315ZM12.2906 28.6803C12.1581 28.5522 11.9805 28.4812 11.7961 28.4827C11.6118 28.4843 11.4354 28.5581 11.305 28.6884C11.1745 28.8187 11.1005 28.995 11.0988 29.1794C11.0971 29.3638 11.1679 29.5414 11.2959 29.6741L14.2791 32.6572C14.3434 32.7263 14.4211 32.7817 14.5073 32.8201C14.5936 32.8586 14.6867 32.8792 14.7811 32.8809C14.8755 32.8825 14.9693 32.8652 15.0568 32.8298C15.1444 32.7945 15.2239 32.7418 15.2907 32.6751C15.3574 32.6083 15.4101 32.5288 15.4454 32.4412C15.4808 32.3536 15.4982 32.2599 15.4965 32.1655C15.4948 32.0711 15.4742 31.9779 15.4357 31.8917C15.3973 31.8054 15.3419 31.7278 15.2728 31.6635L12.2906 28.6803Z" fill="#5092FF"/>
</svg>
